<svg width="86" height="19" viewBox="0 0 86 19" fill="none" xmlns="http://www.w3.org/2000/svg">
<path d="M3.648 9.984V16.608H8.232V17.352C8.232 17.608 8.184 17.784 8.088 17.88C8.008 17.96 7.84 18 7.584 18H1.728V1.848C1.728 1.592 1.768 1.424 1.848 1.344C1.944 1.248 2.12 1.2 2.376 1.2H8.232V1.944C8.232 2.2 8.192 2.376 8.112 2.472C8.048 2.552 7.888 2.592 7.632 2.592H3.648V8.592H7.512V9.336C7.512 9.592 7.472 9.768 7.392 9.864C7.328 9.944 7.168 9.984 6.912 9.984H3.648ZM18.7601 1.2V17.352C18.7601 17.608 18.7121 17.784 18.6161 17.88C18.5361 17.96 18.3681 18 18.1121 18H16.8401V1.848C16.8401 1.592 16.8801 1.424 16.9601 1.344C17.0561 1.248 17.2321 1.2 17.4881 1.2H18.7601ZM13.1201 18C12.2881 18 11.6961 17.832 11.3441 17.496C11.0081 17.144 10.8401 16.552 10.8401 15.72V8.088C10.8401 7.256 11.0081 6.672 11.3441 6.336C11.6961 5.984 12.2881 5.808 13.1201 5.808H15.4001C15.8641 5.808 16.1921 5.928 16.3841 6.168C16.5921 6.392 16.7441 6.736 16.8401 7.2H13.8881C13.3921 7.2 13.0801 7.304 12.9521 7.512C12.8241 7.72 12.7601 8.072 12.7601 8.568V15.24C12.7601 15.736 12.8241 16.088 12.9521 16.296C13.0801 16.504 13.3921 16.608 13.8881 16.608H15.8801V17.352C15.8801 17.608 15.8401 17.784 15.7601 17.88C15.6961 17.96 15.5361 18 15.2801 18H13.1201ZM35.2318 1.2V17.352C35.2318 17.608 35.1838 17.784 35.0878 17.88C35.0078 17.96 34.8398 18 34.5838 18H33.3118V1.848C33.3118 1.592 33.3518 1.424 33.4318 1.344C33.5278 1.248 33.7038 1.2 33.9598 1.2H35.2318ZM28.6558 9.984V17.352C28.6558 17.608 28.6078 17.784 28.5118 17.88C28.4318 17.96 28.2638 18 28.0078 18H26.7358V1.848C26.7358 1.592 26.7758 1.424 26.8558 1.344C26.9518 1.248 27.1278 1.2 27.3838 1.2H28.6558V8.592H32.3518V9.336C32.3518 9.592 32.3118 9.768 32.2318 9.864C32.1678 9.944 32.0078 9.984 31.7518 9.984H28.6558ZM44.9769 16.608V17.352C44.9769 17.608 44.9369 17.784 44.8569 17.88C44.7929 17.96 44.6329 18 44.3769 18H40.7529C39.9209 18 39.3289 17.832 38.9769 17.496C38.6409 17.144 38.4729 16.552 38.4729 15.72V8.088C38.4729 7.256 38.6409 6.672 38.9769 6.336C39.3289 5.984 39.9209 5.808 40.7529 5.808H43.3929C44.2249 5.808 44.8089 5.984 45.1449 6.336C45.4969 6.672 45.6729 7.256 45.6729 8.088V10.776C45.6729 11.608 45.4969 12.2 45.1449 12.552C44.8089 12.888 44.2249 13.056 43.3929 13.056H41.9529C41.6969 13.056 41.5289 13.016 41.4489 12.936C41.3849 12.84 41.3529 12.664 41.3529 12.408V11.664H42.7449C43.2409 11.664 43.5529 11.56 43.6809 11.352C43.8089 11.144 43.8729 10.792 43.8729 10.296V8.448C43.8729 7.952 43.7929 7.624 43.6329 7.464C43.4729 7.288 43.1449 7.2 42.6489 7.2H41.6169C41.0889 7.2 40.7529 7.296 40.6089 7.488C40.4649 7.664 40.3929 8.024 40.3929 8.568V15.24C40.3929 15.736 40.4569 16.088 40.5849 16.296C40.7129 16.504 41.0249 16.608 41.5209 16.608H44.9769ZM53.859 8.568C53.859 8.072 53.795 7.72 53.667 7.512C53.539 7.304 53.227 7.2 52.731 7.2H48.579C48.675 6.736 48.819 6.392 49.011 6.168C49.219 5.928 49.555 5.808 50.019 5.808H53.499C54.331 5.808 54.915 5.984 55.251 6.336C55.603 6.672 55.779 7.256 55.779 8.088V18H54.507C54.251 18 54.075 17.96 53.979 17.88C53.899 17.784 53.859 17.608 53.859 17.352V8.568ZM50.379 18C49.547 18 48.955 17.832 48.603 17.496C48.267 17.144 48.099 16.552 48.099 15.72V13.08C48.099 12.248 48.267 11.664 48.603 11.328C48.955 10.976 49.547 10.8 50.379 10.8H52.419C52.883 10.8 53.211 10.92 53.403 11.16C53.611 11.384 53.763 11.728 53.859 12.192H51.147C50.651 12.192 50.339 12.296 50.211 12.504C50.083 12.712 50.019 13.064 50.019 13.56V15.432C50.019 15.928 50.107 16.248 50.283 16.392C50.475 16.536 50.819 16.608 51.315 16.608H52.899V17.352C52.899 17.608 52.859 17.784 52.779 17.88C52.715 17.96 52.555 18 52.299 18H50.379ZM63.5921 17.352C63.5281 17.608 63.4401 17.784 63.3281 17.88C63.2321 17.96 63.0561 18 62.8001 18H61.3601L58.1921 6.456C58.0961 6.024 58.2561 5.808 58.6721 5.808H59.7521L61.8641 13.368L62.3921 16.224H62.5361L63.0401 13.368L65.0081 6.456C65.0721 6.2 65.1601 6.032 65.2721 5.952C65.3841 5.856 65.5681 5.808 65.8241 5.808H66.8081L63.5921 17.352ZM75.516 16.608V17.352C75.516 17.608 75.476 17.784 75.396 17.88C75.332 17.96 75.172 18 74.916 18H71.292C70.46 18 69.868 17.832 69.516 17.496C69.18 17.144 69.012 16.552 69.012 15.72V8.088C69.012 7.256 69.18 6.672 69.516 6.336C69.868 5.984 70.46 5.808 71.292 5.808H73.932C74.764 5.808 75.348 5.984 75.684 6.336C76.036 6.672 76.212 7.256 76.212 8.088V10.776C76.212 11.608 76.036 12.2 75.684 12.552C75.348 12.888 74.764 13.056 73.932 13.056H72.492C72.236 13.056 72.068 13.016 71.988 12.936C71.924 12.84 71.892 12.664 71.892 12.408V11.664H73.284C73.78 11.664 74.092 11.56 74.22 11.352C74.348 11.144 74.412 10.792 74.412 10.296V8.448C74.412 7.952 74.332 7.624 74.172 7.464C74.012 7.288 73.684 7.2 73.188 7.2H72.156C71.628 7.2 71.292 7.296 71.148 7.488C71.004 7.664 70.932 8.024 70.932 8.568V15.24C70.932 15.736 70.996 16.088 71.124 16.296C71.252 16.504 71.564 16.608 72.06 16.608H75.516ZM80.8941 7.2V17.352C80.8941 17.608 80.8461 17.784 80.7501 17.88C80.6701 17.96 80.5021 18 80.2461 18H78.9741V6.456C78.9741 6.2 79.0141 6.032 79.0941 5.952C79.1901 5.856 79.3661 5.808 79.6221 5.808H80.8941V7.2C81.1021 6.656 81.3181 6.288 81.5421 6.096C81.7661 5.904 82.1101 5.808 82.5741 5.808H83.5101C83.7661 5.808 83.9261 5.856 83.9901 5.952C84.0701 6.032 84.1101 6.2 84.1101 6.456V7.2H80.8941Z" fill="grey"/>
<path d="M3.648 9.984V8.984H2.648V9.984H3.648ZM3.648 16.608H2.648V17.608H3.648V16.608ZM8.232 16.608H9.232V15.608H8.232V16.608ZM8.088 17.88L7.38089 17.1729L7.38089 17.1729L8.088 17.88ZM1.728 18H0.728V19H1.728V18ZM1.848 1.344L2.55511 2.05111L2.55511 2.0511L1.848 1.344ZM8.232 1.2H9.232V0.199999H8.232V1.2ZM8.112 2.472L7.34378 1.83182L7.33738 1.8395L7.33113 1.8473L8.112 2.472ZM3.648 2.592V1.592H2.648V2.592H3.648ZM3.648 8.592H2.648V9.592H3.648V8.592ZM7.512 8.592H8.512V7.592H7.512V8.592ZM7.392 9.864L6.62378 9.22382L6.61738 9.2315L6.61113 9.2393L7.392 9.864ZM2.648 9.984V16.608H4.648V9.984H2.648ZM3.648 17.608H8.232V15.608H3.648V17.608ZM7.232 16.608V17.352H9.232V16.608H7.232ZM7.232 17.352C7.232 17.4239 7.22457 17.4373 7.23124 17.4129C7.23787 17.3886 7.27066 17.2831 7.38089 17.1729L8.79511 18.5871C9.18767 18.1945 9.232 17.6634 9.232 17.352H7.232ZM7.38089 17.1729C7.45505 17.0987 7.52743 17.0558 7.57594 17.0323C7.62405 17.0091 7.65886 16.9999 7.67038 16.9972C7.68916 16.9927 7.66759 17 7.584 17V19C7.75641 19 7.94685 18.9873 8.13362 18.9428C8.31002 18.9008 8.57257 18.8096 8.79511 18.5871L7.38089 17.1729ZM7.584 17H1.728V19H7.584V17ZM2.728 18V1.848H0.728V18H2.728ZM2.728 1.848C2.728 1.76441 2.73528 1.74284 2.73081 1.76162C2.72806 1.77314 2.71894 1.80795 2.69566 1.85606C2.67219 1.90457 2.62926 1.97695 2.55511 2.05111L1.14089 0.636893C0.918353 0.859433 0.827194 1.12198 0.785194 1.29838C0.740724 1.48515 0.728 1.67559 0.728 1.848H2.728ZM2.55511 2.0511C2.44487 2.16134 2.33942 2.19413 2.31512 2.20076C2.29066 2.20743 2.30412 2.2 2.376 2.2V0.199999C2.0646 0.199999 1.53345 0.244332 1.14089 0.636896L2.55511 2.0511ZM2.376 2.2H8.232V0.199999H2.376V2.2ZM7.232 1.2V1.944H9.232V1.2H7.232ZM7.232 1.944C7.232 2.02572 7.22507 2.05429 7.22687 2.04638C7.22816 2.04067 7.23393 2.01683 7.24958 1.98136C7.26532 1.94569 7.29406 1.89148 7.34378 1.83182L8.88022 3.11218C9.20295 2.72491 9.232 2.22868 9.232 1.944H7.232ZM7.33113 1.8473C7.41727 1.73963 7.51036 1.67699 7.57378 1.64302C7.63621 1.60957 7.68387 1.59626 7.70147 1.59186C7.73173 1.58429 7.71788 1.592 7.632 1.592V3.592C7.80212 3.592 7.99627 3.57971 8.18654 3.53214C8.3591 3.489 8.66303 3.384 8.89287 3.0967L7.33113 1.8473ZM7.632 1.592H3.648V3.592H7.632V1.592ZM2.648 2.592V8.592H4.648V2.592H2.648ZM3.648 9.592H7.512V7.592H3.648V9.592ZM6.512 8.592V9.336H8.512V8.592H6.512ZM6.512 9.336C6.512 9.41772 6.50507 9.44629 6.50687 9.43838C6.50816 9.43267 6.51393 9.40883 6.52958 9.37336C6.54532 9.33769 6.57406 9.28348 6.62378 9.22382L8.16022 10.5042C8.48295 10.1169 8.512 9.62068 8.512 9.336H6.512ZM6.61113 9.2393C6.69727 9.13163 6.79036 9.06899 6.85378 9.03502C6.91621 9.00157 6.96387 8.98826 6.98147 8.98386C7.01173 8.97629 6.99788 8.984 6.912 8.984V10.984C7.08212 10.984 7.27627 10.9717 7.46654 10.9241C7.6391 10.881 7.94303 10.776 8.17287 10.4887L6.61113 9.2393ZM6.912 8.984H3.648V10.984H6.912V8.984ZM18.7601 1.2H19.7601V0.199999H18.7601V1.2ZM18.6161 17.88L19.3232 18.5871L19.3232 18.5871L18.6161 17.88ZM16.8401 18H15.8401V19H16.8401V18ZM16.9601 1.344L17.6672 2.05111L17.6672 2.0511L16.9601 1.344ZM11.3441 17.496L10.6208 18.1865L10.6368 18.2033L10.6536 18.2194L11.3441 17.496ZM11.3441 6.336L10.637 5.62889L10.637 5.62889L11.3441 6.336ZM16.3841 6.168L15.6033 6.79269L15.6263 6.82146L15.6513 6.84845L16.3841 6.168ZM16.8401 7.2V8.2H18.0682L17.8194 6.99739L16.8401 7.2ZM12.9521 7.512L13.8038 8.0361L13.8038 8.0361L12.9521 7.512ZM12.9521 16.296L12.1005 16.8201L12.1005 16.8201L12.9521 16.296ZM15.8801 16.608H16.8801V15.608H15.8801V16.608ZM15.7601 17.88L14.9919 17.2398L14.9855 17.2475L14.9793 17.2553L15.7601 17.88ZM17.7601 1.2V17.352H19.7601V1.2H17.7601ZM17.7601 17.352C17.7601 17.4239 17.7527 17.4373 17.7594 17.4129C17.766 17.3886 17.7988 17.2831 17.909 17.1729L19.3232 18.5871C19.7158 18.1945 19.7601 17.6634 19.7601 17.352H17.7601ZM17.909 17.1729C17.9832 17.0987 18.0556 17.0558 18.1041 17.0323C18.1522 17.0091 18.187 16.9999 18.1985 16.9972C18.2173 16.9927 18.1957 17 18.1121 17V19C18.2845 19 18.475 18.9873 18.6617 18.9428C18.8381 18.9008 19.1007 18.8096 19.3232 18.5871L17.909 17.1729ZM18.1121 17H16.8401V19H18.1121V17ZM17.8401 18V1.848H15.8401V18H17.8401ZM17.8401 1.848C17.8401 1.76441 17.8474 1.74284 17.8429 1.76162C17.8402 1.77314 17.8311 1.80795 17.8078 1.85606C17.7843 1.90457 17.7414 1.97695 17.6672 2.05111L16.253 0.636893C16.0305 0.859434 15.9393 1.12198 15.8973 1.29838C15.8528 1.48515 15.8401 1.67559 15.8401 1.848H17.8401ZM17.6672 2.0511C17.557 2.16134 17.4515 2.19413 17.4272 2.20076C17.4028 2.20743 17.4162 2.2 17.4881 2.2V0.199999C17.1767 0.199999 16.6456 0.244331 16.253 0.636897L17.6672 2.0511ZM17.4881 2.2H18.7601V0.199999H17.4881V2.2ZM13.1201 17C12.3758 17 12.1063 16.8411 12.0346 16.7726L10.6536 18.2194C11.286 18.8229 12.2004 19 13.1201 19V17ZM12.0675 16.8055C11.999 16.7338 11.8401 16.4643 11.8401 15.72H9.84013C9.84013 16.6397 10.0172 17.5542 10.6208 18.1865L12.0675 16.8055ZM11.8401 15.72V8.088H9.84013V15.72H11.8401ZM11.8401 8.088C11.8401 7.33701 12.0018 7.09251 12.0512 7.04311L10.637 5.62889C10.0144 6.25148 9.84013 7.17499 9.84013 8.088H11.8401ZM12.0512 7.04311C12.1233 6.97106 12.3852 6.808 13.1201 6.808V4.808C12.1911 4.808 11.269 4.99694 10.637 5.62889L12.0512 7.04311ZM13.1201 6.808H15.4001V4.808H13.1201V6.808ZM15.4001 6.808C15.5511 6.808 15.6262 6.8282 15.6505 6.83712C15.6609 6.84091 15.6572 6.84085 15.6454 6.83269C15.633 6.82408 15.6176 6.81062 15.6033 6.79269L17.165 5.5433C16.7025 4.96524 16.0096 4.808 15.4001 4.808V6.808ZM15.6513 6.84845C15.6846 6.88426 15.7832 7.02715 15.8609 7.40261L17.8194 6.99739C17.7051 6.44484 17.4997 5.89974 17.1169 5.48755L15.6513 6.84845ZM16.8401 6.2H13.8881V8.2H16.8401V6.2ZM13.8881 6.2C13.5815 6.2 13.2617 6.23071 12.9659 6.32932C12.6646 6.42975 12.3245 6.62389 12.1005 6.9879L13.8038 8.0361C13.7582 8.11012 13.7043 8.16055 13.6611 8.19123C13.6203 8.22011 13.5941 8.2281 13.5984 8.22668C13.6026 8.22527 13.6269 8.21793 13.6783 8.21132C13.729 8.20479 13.798 8.2 13.8881 8.2V6.2ZM12.1005 6.9879C11.8177 7.44741 11.7601 8.04226 11.7601 8.568H13.7601C13.7601 8.35887 13.7739 8.21019 13.792 8.11089C13.8112 8.00539 13.8278 7.99714 13.8038 8.0361L12.1005 6.9879ZM11.7601 8.568V15.24H13.7601V8.568H11.7601ZM11.7601 15.24C11.7601 15.7657 11.8177 16.3606 12.1005 16.8201L13.8038 15.7719C13.8278 15.8109 13.8112 15.8026 13.792 15.6971C13.7739 15.5978 13.7601 15.4491 13.7601 15.24H11.7601ZM12.1005 16.8201C12.3245 17.1841 12.6646 17.3782 12.9659 17.4787C13.2617 17.5773 13.5815 17.608 13.8881 17.608V15.608C13.798 15.608 13.729 15.6032 13.6783 15.5967C13.6269 15.5901 13.6026 15.5827 13.5984 15.5813C13.5941 15.5799 13.6203 15.5879 13.6611 15.6168C13.7043 15.6475 13.7582 15.6979 13.8038 15.7719L12.1005 16.8201ZM13.8881 17.608H15.8801V15.608H13.8881V17.608ZM14.8801 16.608V17.352H16.8801V16.608H14.8801ZM14.8801 17.352C14.8801 17.4337 14.8732 17.4623 14.875 17.4544C14.8763 17.4487 14.8821 17.4248 14.8977 17.3894C14.9134 17.3537 14.9422 17.2995 14.9919 17.2398L16.5283 18.5202C16.8511 18.1329 16.8801 17.6367 16.8801 17.352H14.8801ZM14.9793 17.2553C15.0654 17.1476 15.1585 17.085 15.2219 17.051C15.2843 17.0176 15.332 17.0043 15.3496 16.9999C15.3799 16.9923 15.366 17 15.2801 17V19C15.4502 19 15.6444 18.9877 15.8347 18.9401C16.0072 18.897 16.3112 18.792 16.541 18.5047L14.9793 17.2553ZM15.2801 17H13.1201V19H15.2801V17ZM35.2318 1.2H36.2318V0.199999H35.2318V1.2ZM35.0878 17.88L34.3807 17.1729L34.3807 17.1729L35.0878 17.88ZM33.3118 18H32.3118V19H33.3118V18ZM33.4318 1.344L34.1389 2.05111L34.1389 2.0511L33.4318 1.344ZM28.6558 9.984V8.984H27.6558V9.984H28.6558ZM28.5118 17.88L29.2189 18.5871L29.2189 18.5871L28.5118 17.88ZM26.7358 18H25.7358V19H26.7358V18ZM26.8558 1.344L27.5629 2.05111L27.5629 2.0511L26.8558 1.344ZM28.6558 1.2H29.6558V0.199999H28.6558V1.2ZM28.6558 8.592H27.6558V9.592H28.6558V8.592ZM32.3518 8.592H33.3518V7.592H32.3518V8.592ZM32.2318 9.864L31.4636 9.22382L31.4572 9.2315L31.4509 9.2393L32.2318 9.864ZM34.2318 1.2V17.352H36.2318V1.2H34.2318ZM34.2318 17.352C34.2318 17.4239 34.2244 17.4373 34.231 17.4129C34.2377 17.3886 34.2705 17.2831 34.3807 17.1729L35.7949 18.5871C36.1875 18.1945 36.2318 17.6634 36.2318 17.352H34.2318ZM34.3807 17.1729C34.4549 17.0987 34.5272 17.0558 34.5758 17.0323C34.6239 17.0091 34.6587 16.9999 34.6702 16.9972C34.689 16.9927 34.6674 17 34.5838 17V19C34.7562 19 34.9467 18.9873 35.1334 18.9428C35.3098 18.9008 35.5724 18.8096 35.7949 18.5871L34.3807 17.1729ZM34.5838 17H33.3118V19H34.5838V17ZM34.3118 18V1.848H32.3118V18H34.3118ZM34.3118 1.848C34.3118 1.76441 34.3191 1.74284 34.3146 1.76162C34.3119 1.77314 34.3028 1.80795 34.2795 1.85606C34.256 1.90457 34.2131 1.97695 34.1389 2.05111L32.7247 0.636893C32.5022 0.859434 32.411 1.12198 32.369 1.29838C32.3245 1.48515 32.3118 1.67559 32.3118 1.848H34.3118ZM34.1389 2.0511C34.0287 2.16134 33.9232 2.19413 33.8989 2.20076C33.8745 2.20743 33.8879 2.2 33.9598 2.2V0.199999C33.6484 0.199999 33.1173 0.244332 32.7247 0.636895L34.1389 2.0511ZM33.9598 2.2H35.2318V0.199999H33.9598V2.2ZM27.6558 9.984V17.352H29.6558V9.984H27.6558ZM27.6558 17.352C27.6558 17.4239 27.6484 17.4373 27.655 17.4129C27.6617 17.3886 27.6945 17.2831 27.8047 17.1729L29.2189 18.5871C29.6115 18.1945 29.6558 17.6634 29.6558 17.352H27.6558ZM27.8047 17.1729C27.8789 17.0987 27.9512 17.0558 27.9998 17.0323C28.0479 17.0091 28.0827 16.9999 28.0942 16.9972C28.113 16.9927 28.0914 17 28.0078 17V19C28.1802 19 28.3707 18.9873 28.5574 18.9428C28.7338 18.9008 28.9964 18.8096 29.2189 18.5871L27.8047 17.1729ZM28.0078 17H26.7358V19H28.0078V17ZM27.7358 18V1.848H25.7358V18H27.7358ZM27.7358 1.848C27.7358 1.76441 27.7431 1.74284 27.7386 1.76162C27.7359 1.77314 27.7268 1.80795 27.7035 1.85606C27.68 1.90457 27.6371 1.97695 27.5629 2.05111L26.1487 0.636893C25.9262 0.859433 25.835 1.12198 25.793 1.29838C25.7485 1.48515 25.7358 1.67559 25.7358 1.848H27.7358ZM27.5629 2.0511C27.4527 2.16134 27.3472 2.19413 27.3229 2.20076C27.2985 2.20743 27.3119 2.2 27.3838 2.2V0.199999C27.0724 0.199999 26.5413 0.244332 26.1487 0.636896L27.5629 2.0511ZM27.3838 2.2H28.6558V0.199999H27.3838V2.2ZM27.6558 1.2V8.592H29.6558V1.2H27.6558ZM28.6558 9.592H32.3518V7.592H28.6558V9.592ZM31.3518 8.592V9.336H33.3518V8.592H31.3518ZM31.3518 9.336C31.3518 9.41772 31.3449 9.44629 31.3467 9.43838C31.348 9.43267 31.3537 9.40883 31.3694 9.37336C31.3851 9.33769 31.4139 9.28348 31.4636 9.22382L33 10.5042C33.3228 10.1169 33.3518 9.62068 33.3518 9.336H31.3518ZM31.4509 9.2393C31.5371 9.13163 31.6302 9.06899 31.6936 9.03502C31.756 9.00157 31.8037 8.98826 31.8213 8.98386C31.8515 8.97629 31.8377 8.984 31.7518 8.984V10.984C31.9219 10.984 32.1161 10.9717 32.3063 10.9241C32.4789 10.881 32.7828 10.776 33.0127 10.4887L31.4509 9.2393ZM31.7518 8.984H28.6558V10.984H31.7518V8.984ZM44.9769 16.608H45.9769V15.608H44.9769V16.608ZM44.8569 17.88L44.0887 17.2398L44.0823 17.2475L44.0761 17.2553L44.8569 17.88ZM38.9769 17.496L38.2536 18.1865L38.2696 18.2033L38.2865 18.2194L38.9769 17.496ZM38.9769 6.336L38.2698 5.62889L38.2698 5.62889L38.9769 6.336ZM45.1449 6.336L44.4216 7.02648L44.4376 7.0433L44.4545 7.05935L45.1449 6.336ZM45.1449 12.552L45.852 13.2591L45.852 13.2591L45.1449 12.552ZM41.4489 12.936L40.6169 13.4907L40.6718 13.5731L40.7418 13.6431L41.4489 12.936ZM41.3529 11.664V10.664H40.3529V11.664H41.3529ZM43.6809 11.352L42.8293 10.8279L42.8293 10.8279L43.6809 11.352ZM43.6329 7.464L42.893 8.13667L42.909 8.15428L42.9258 8.17111L43.6329 7.464ZM40.6089 7.488L41.3829 8.12124L41.3963 8.10489L41.4089 8.088L40.6089 7.488ZM40.5849 16.296L39.7333 16.8201L39.7333 16.8201L40.5849 16.296ZM43.9769 16.608V17.352H45.9769V16.608H43.9769ZM43.9769 17.352C43.9769 17.4337 43.97 17.4623 43.9718 17.4544C43.9731 17.4487 43.9789 17.4248 43.9945 17.3894C44.0103 17.3537 44.039 17.2995 44.0887 17.2398L45.6252 18.5202C45.9479 18.1329 45.9769 17.6367 45.9769 17.352H43.9769ZM44.0761 17.2553C44.1622 17.1476 44.2553 17.085 44.3187 17.051C44.3811 17.0176 44.4288 17.0043 44.4464 16.9999C44.4767 16.9923 44.4628 17 44.3769 17V19C44.5471 19 44.7412 18.9877 44.9315 18.9401C45.104 18.897 45.408 18.792 45.6378 18.5047L44.0761 17.2553ZM44.3769 17H40.7529V19H44.3769V17ZM40.7529 17C40.0086 17 39.7391 16.8411 39.6674 16.7726L38.2865 18.2194C38.9188 18.8229 39.8333 19 40.7529 19V17ZM39.7003 16.8055C39.6319 16.7338 39.4729 16.4643 39.4729 15.72H37.4729C37.4729 16.6397 37.65 17.5542 38.2536 18.1865L39.7003 16.8055ZM39.4729 15.72V8.088H37.4729V15.72H39.4729ZM39.4729 8.088C39.4729 7.33701 39.6346 7.09251 39.684 7.04311L38.2698 5.62889C37.6472 6.25148 37.4729 7.17499 37.4729 8.088H39.4729ZM39.684 7.04311C39.7561 6.97106 40.018 6.808 40.7529 6.808V4.808C39.8239 4.808 38.9018 4.99694 38.2698 5.62889L39.684 7.04311ZM40.7529 6.808H43.3929V4.808H40.7529V6.808ZM43.3929 6.808C44.1343 6.808 44.3713 6.97375 44.4216 7.02648L45.8683 5.64552C45.2466 4.99425 44.3156 4.808 43.3929 4.808V6.808ZM44.4545 7.05935C44.5072 7.10969 44.6729 7.34666 44.6729 8.088H46.6729C46.6729 7.16534 46.4867 6.23431 45.8354 5.61264L44.4545 7.05935ZM44.6729 8.088V10.776H46.6729V8.088H44.6729ZM44.6729 10.776C44.6729 11.5109 44.5099 11.7728 44.4378 11.8449L45.852 13.2591C46.484 12.6272 46.6729 11.7051 46.6729 10.776H44.6729ZM44.4378 11.8449C44.3884 11.8943 44.1439 12.056 43.3929 12.056V14.056C44.3059 14.056 45.2295 13.8817 45.852 13.2591L44.4378 11.8449ZM43.3929 12.056H41.9529V14.056H43.3929V12.056ZM41.9529 12.056C41.8693 12.056 41.8478 12.0487 41.8666 12.0532C41.8781 12.0559 41.9129 12.0651 41.961 12.0883C42.0095 12.1118 42.0819 12.1547 42.156 12.2289L40.7418 13.6431C40.9644 13.8656 41.2269 13.9568 41.4033 13.9988C41.5901 14.0433 41.7805 14.056 41.9529 14.056V12.056ZM42.281 12.3813C42.3208 12.441 42.3409 12.4905 42.3499 12.5162C42.3592 12.5426 42.3615 12.5567 42.3608 12.5531C42.3603 12.5502 42.3581 12.537 42.3562 12.5111C42.3543 12.4856 42.3529 12.4516 42.3529 12.408H40.3529C40.3529 12.5727 40.3628 12.7447 40.3931 12.9109C40.4214 13.067 40.4791 13.284 40.6169 13.4907L42.281 12.3813ZM42.3529 12.408V11.664H40.3529V12.408H42.3529ZM41.3529 12.664H42.7449V10.664H41.3529V12.664ZM42.7449 12.664C43.0515 12.664 43.3714 12.6333 43.6672 12.5347C43.9685 12.4342 44.3086 12.2401 44.5326 11.8761L42.8293 10.8279C42.8748 10.7539 42.9287 10.7035 42.972 10.6728C43.0127 10.6439 43.039 10.6359 43.0347 10.6373C43.0305 10.6387 43.0062 10.6461 42.9548 10.6527C42.904 10.6592 42.8351 10.664 42.7449 10.664V12.664ZM44.5326 11.8761C44.8154 11.4166 44.8729 10.8217 44.8729 10.296H42.8729C42.8729 10.5051 42.8591 10.6538 42.8411 10.7531C42.8219 10.8586 42.8053 10.8669 42.8293 10.8279L44.5326 11.8761ZM44.8729 10.296V8.448H42.8729V10.296H44.8729ZM44.8729 8.448C44.8729 8.15373 44.85 7.86156 44.7845 7.59304C44.721 7.33267 44.5983 7.01516 44.34 6.75689L42.9258 8.17111C42.8744 8.11971 42.8495 8.075 42.8406 8.05682C42.8319 8.03917 42.8347 8.03938 42.8414 8.06696C42.8559 8.12643 42.8729 8.24627 42.8729 8.448H44.8729ZM44.3729 6.79133C44.12 6.51315 43.7997 6.37357 43.5261 6.30016C43.2485 6.22569 42.9482 6.2 42.6489 6.2V8.2C42.8457 8.2 42.9574 8.21831 43.0078 8.23184C43.0622 8.24642 42.9859 8.23885 42.893 8.13667L44.3729 6.79133ZM42.6489 6.2H41.6169V8.2H42.6489V6.2ZM41.6169 6.2C41.3023 6.2 40.9847 6.22748 40.6942 6.31048C40.4085 6.39211 40.0596 6.55375 39.8089 6.888L41.4089 8.088C41.3023 8.23025 41.1934 8.24789 41.2437 8.23352C41.2628 8.22806 41.3021 8.21913 41.3674 8.21188C41.4319 8.20471 41.5143 8.2 41.6169 8.2V6.2ZM39.835 6.85476C39.6145 7.12424 39.5168 7.44147 39.4664 7.69388C39.4129 7.96126 39.3929 8.2584 39.3929 8.568H41.3929C41.3929 8.3336 41.409 8.17874 41.4275 8.08612C41.4365 8.04141 41.4433 8.02487 41.442 8.02828C41.4409 8.03094 41.4255 8.06917 41.3829 8.12124L39.835 6.85476ZM39.3929 8.568V15.24H41.3929V8.568H39.3929ZM39.3929 15.24C39.3929 15.7657 39.4505 16.3606 39.7333 16.8201L41.4366 15.7719C41.4606 15.8109 41.444 15.8026 41.4248 15.6971C41.4068 15.5978 41.3929 15.4491 41.3929 15.24H39.3929ZM39.7333 16.8201C39.9573 17.1841 40.2974 17.3782 40.5987 17.4787C40.8945 17.5773 41.2143 17.608 41.5209 17.608V15.608C41.4308 15.608 41.3618 15.6032 41.3111 15.5967C41.2597 15.5901 41.2354 15.5827 41.2312 15.5813C41.2269 15.5799 41.2531 15.5879 41.2939 15.6168C41.3371 15.6475 41.391 15.6979 41.4366 15.7719L39.7333 16.8201ZM41.5209 17.608H44.9769V15.608H41.5209V17.608ZM53.667 7.512L54.5187 6.9879L54.5187 6.9879L53.667 7.512ZM48.579 7.2L47.5997 6.99739L47.3509 8.2H48.579V7.2ZM49.011 6.168L48.2553 5.51306L48.2517 5.51721L49.011 6.168ZM55.251 6.336L54.5276 7.02648L54.5437 7.0433L54.5605 7.05936L55.251 6.336ZM55.779 18V19H56.779V18H55.779ZM53.979 17.88L53.2108 18.5202L53.269 18.59L53.3388 18.6482L53.979 17.88ZM48.603 17.496L47.8796 18.1865L47.8957 18.2033L47.9125 18.2194L48.603 17.496ZM48.603 11.328L47.8959 10.6209L47.8959 10.6209L48.603 11.328ZM53.403 11.16L52.6221 11.7847L52.6451 11.8135L52.6702 11.8405L53.403 11.16ZM53.859 12.192V13.192H55.0871L54.8383 11.9894L53.859 12.192ZM50.211 12.504L51.0627 13.0281L51.0627 13.0281L50.211 12.504ZM50.283 16.392L49.6498 17.166L49.6661 17.1793L49.683 17.192L50.283 16.392ZM52.899 16.608H53.899V15.608H52.899V16.608ZM52.779 17.88L52.0108 17.2398L52.0044 17.2475L51.9981 17.2553L52.779 17.88ZM54.859 8.568C54.859 8.04226 54.8014 7.44741 54.5187 6.9879L52.8153 8.0361C52.7914 7.99714 52.8079 8.00539 52.8271 8.11088C52.8452 8.21019 52.859 8.35887 52.859 8.568H54.859ZM54.5187 6.9879C54.2946 6.62389 53.9545 6.42975 53.6532 6.32932C53.3574 6.23071 53.0376 6.2 52.731 6.2V8.2C52.8211 8.2 52.8901 8.20479 52.9408 8.21132C52.9922 8.21793 53.0165 8.22527 53.0208 8.22668C53.025 8.2281 52.9988 8.22011 52.9581 8.19123C52.9148 8.16055 52.8609 8.11012 52.8153 8.0361L54.5187 6.9879ZM52.731 6.2H48.579V8.2H52.731V6.2ZM49.5583 7.40261C49.6386 7.01413 49.7357 6.8591 49.7703 6.81879L48.2517 5.51721C47.9023 5.9249 47.7114 6.45787 47.5997 6.99739L49.5583 7.40261ZM49.7667 6.82293C49.7445 6.84848 49.7291 6.84912 49.7553 6.83974C49.7884 6.82792 49.869 6.808 50.019 6.808V4.808C49.4016 4.808 48.7274 4.96833 48.2553 5.51307L49.7667 6.82293ZM50.019 6.808H53.499V4.808H50.019V6.808ZM53.499 6.808C54.2403 6.808 54.4773 6.97375 54.5276 7.02648L55.9744 5.64552C55.3527 4.99425 54.4217 4.808 53.499 4.808V6.808ZM54.5605 7.05936C54.6133 7.10969 54.779 7.34666 54.779 8.088H56.779C56.779 7.16534 56.5927 6.23431 55.9415 5.61264L54.5605 7.05936ZM54.779 8.088V18H56.779V8.088H54.779ZM55.779 17H54.507V19H55.779V17ZM54.507 17C54.4253 17 54.3967 16.9931 54.4046 16.9949C54.4103 16.9962 54.4342 17.0019 54.4696 17.0176C54.5053 17.0333 54.5595 17.0621 54.6192 17.1118L53.3388 18.6482C53.7261 18.9709 54.2223 19 54.507 19V17ZM54.7472 17.2398C54.7969 17.2995 54.8257 17.3537 54.8414 17.3894C54.8571 17.4248 54.8628 17.4487 54.8641 17.4544C54.8659 17.4623 54.859 17.4337 54.859 17.352H52.859C52.859 17.6367 52.8881 18.1329 53.2108 18.5202L54.7472 17.2398ZM54.859 17.352V8.568H52.859V17.352H54.859ZM50.379 17C49.6347 17 49.3652 16.8411 49.2935 16.7726L47.9125 18.2194C48.5448 18.8229 49.4593 19 50.379 19V17ZM49.3264 16.8055C49.2579 16.7338 49.099 16.4643 49.099 15.72H47.099C47.099 16.6397 47.2761 17.5542 47.8796 18.1865L49.3264 16.8055ZM49.099 15.72V13.08H47.099V15.72H49.099ZM49.099 13.08C49.099 12.329 49.2607 12.0845 49.3101 12.0351L47.8959 10.6209C47.2733 11.2435 47.099 12.167 47.099 13.08H49.099ZM49.3101 12.0351C49.3822 11.9631 49.6441 11.8 50.379 11.8V9.8C49.4499 9.8 48.5278 9.98894 47.8959 10.6209L49.3101 12.0351ZM50.379 11.8H52.419V9.8H50.379V11.8ZM52.419 11.8C52.57 11.8 52.645 11.8202 52.6694 11.8291C52.6798 11.8329 52.6761 11.8329 52.6643 11.8247C52.6519 11.8161 52.6365 11.8026 52.6221 11.7847L54.1839 10.5353C53.7214 9.95724 53.0285 9.8 52.419 9.8V11.8ZM52.6702 11.8405C52.7035 11.8763 52.8021 12.0192 52.8797 12.3946L54.8383 11.9894C54.7239 11.4368 54.5185 10.8917 54.1358 10.4795L52.6702 11.8405ZM53.859 11.192H51.147V13.192H53.859V11.192ZM51.147 11.192C50.8404 11.192 50.5206 11.2227 50.2248 11.3213C49.9235 11.4218 49.5834 11.6159 49.3593 11.9799L51.0627 13.0281C51.0171 13.1021 50.9632 13.1525 50.9199 13.1832C50.8792 13.2121 50.853 13.2201 50.8572 13.2187C50.8615 13.2173 50.8858 13.2099 50.9372 13.2033C50.9879 13.1968 51.0569 13.192 51.147 13.192V11.192ZM49.3593 11.9799C49.0766 12.4394 49.019 13.0343 49.019 13.56H51.019C51.019 13.3509 51.0328 13.2022 51.0509 13.1029C51.0701 12.9974 51.0866 12.9891 51.0627 13.0281L49.3593 11.9799ZM49.019 13.56V15.432H51.019V13.56H49.019ZM49.019 15.432C49.019 15.73 49.0444 16.0315 49.1208 16.3092C49.1956 16.5813 49.3431 16.915 49.6498 17.166L50.9162 15.618C50.9824 15.6722 51.0192 15.7258 51.0367 15.7565C51.0533 15.7857 51.0543 15.7973 51.0492 15.7788C51.0443 15.761 51.0363 15.7244 51.0297 15.6638C51.0233 15.6038 51.019 15.5273 51.019 15.432H49.019ZM49.683 17.192C50.1551 17.5461 50.7926 17.608 51.315 17.608V15.608C51.1102 15.608 50.9733 15.5927 50.8899 15.5752C50.7999 15.5564 50.8206 15.5452 50.883 15.592L49.683 17.192ZM51.315 17.608H52.899V15.608H51.315V17.608ZM51.899 16.608V17.352H53.899V16.608H51.899ZM51.899 17.352C51.899 17.4337 51.8921 17.4623 51.8939 17.4544C51.8952 17.4487 51.9009 17.4248 51.9166 17.3894C51.9323 17.3537 51.9611 17.2995 52.0108 17.2398L53.5472 18.5202C53.8699 18.1329 53.899 17.6367 53.899 17.352H51.899ZM51.9981 17.2553C52.0843 17.1476 52.1774 17.085 52.2408 17.051C52.3032 17.0176 52.3509 17.0043 52.3685 16.9999C52.3987 16.9923 52.3849 17 52.299 17V19C52.4691 19 52.6633 18.9877 52.8535 18.9401C53.0261 18.897 53.33 18.792 53.5599 18.5047L51.9981 17.2553ZM52.299 17H50.379V19H52.299V17ZM63.5921 17.352L62.6288 17.0836L62.6252 17.0965L62.622 17.1095L63.5921 17.352ZM63.3281 17.88L63.9684 18.6483L63.9789 18.6393L63.3281 17.88ZM61.3601 18L60.3958 18.2646L60.5976 19H61.3601V18ZM58.1921 6.456L57.2159 6.67293L57.2213 6.69693L57.2278 6.72064L58.1921 6.456ZM59.7521 5.808L60.7152 5.53894L60.511 4.808H59.7521V5.808ZM61.8641 13.368L62.8475 13.1862L62.8393 13.1421L62.8272 13.0989L61.8641 13.368ZM62.3921 16.224L61.4088 16.4058L61.5601 17.224H62.3921V16.224ZM62.5361 16.224V17.224H63.3751L63.5209 16.3978L62.5361 16.224ZM63.0401 13.368L62.0783 13.0942L62.0643 13.1436L62.0553 13.1942L63.0401 13.368ZM65.0081 6.456L65.9699 6.72984L65.9743 6.71425L65.9783 6.69853L65.0081 6.456ZM65.2721 5.952L65.8534 6.76573L65.8893 6.74003L65.9229 6.71126L65.2721 5.952ZM66.8081 5.808L67.7714 6.07637L68.1248 4.808H66.8081V5.808ZM62.622 17.1095C62.6124 17.1477 62.6036 17.1765 62.5963 17.1971C62.589 17.2179 62.5843 17.2276 62.5837 17.2288C62.5831 17.2301 62.5883 17.2192 62.602 17.2006C62.6157 17.1819 62.6399 17.1528 62.6773 17.1207L63.9789 18.6393C64.3303 18.3381 64.4828 17.9126 64.5623 17.5945L62.622 17.1095ZM62.6879 17.1118C62.7476 17.0621 62.8018 17.0333 62.8375 17.0176C62.873 17.0019 62.8968 16.9962 62.9025 16.9949C62.9104 16.9931 62.8818 17 62.8001 17V19C63.0848 19 63.581 18.9709 63.9683 18.6482L62.6879 17.1118ZM62.8001 17H61.3601V19H62.8001V17ZM62.3245 17.7354L59.1565 6.19136L57.2278 6.72064L60.3958 18.2646L62.3245 17.7354ZM59.1683 6.23907C59.1437 6.12825 59.2211 6.32575 59.0437 6.56523C58.8497 6.82713 58.6031 6.808 58.6721 6.808V4.808C58.3252 4.808 57.7906 4.89686 57.4366 5.37477C57.0992 5.83025 57.1446 6.35175 57.2159 6.67293L59.1683 6.23907ZM58.6721 6.808H59.7521V4.808H58.6721V6.808ZM58.789 6.07706L60.901 13.6371L62.8272 13.0989L60.7152 5.53894L58.789 6.07706ZM60.8808 13.5498L61.4088 16.4058L63.3755 16.0422L62.8475 13.1862L60.8808 13.5498ZM62.3921 17.224H62.5361V15.224H62.3921V17.224ZM63.5209 16.3978L64.0249 13.5418L62.0553 13.1942L61.5513 16.0502L63.5209 16.3978ZM64.0019 13.6418L65.9699 6.72984L64.0463 6.18216L62.0783 13.0942L64.0019 13.6418ZM65.9783 6.69853C65.9876 6.66135 65.9958 6.63508 66.002 6.61796C66.0082 6.60058 66.0109 6.59643 66.008 6.60201C66.0051 6.60737 65.994 6.62778 65.971 6.65625C65.9478 6.68507 65.9098 6.72545 65.8534 6.76573L64.6909 5.13827C64.2734 5.43649 64.1138 5.91025 64.038 6.21346L65.9783 6.69853ZM65.9229 6.71126C65.8353 6.78634 65.7604 6.80799 65.7465 6.81162C65.7333 6.81507 65.754 6.808 65.8241 6.808V4.808C65.489 4.808 65.0071 4.86211 64.6213 5.19274L65.9229 6.71126ZM65.8241 6.808H66.8081V4.808H65.8241V6.808ZM65.8448 5.53963L62.6288 17.0836L64.5554 17.6204L67.7714 6.07637L65.8448 5.53963ZM75.516 16.608H76.516V15.608H75.516V16.608ZM75.396 17.88L74.6278 17.2398L74.6214 17.2475L74.6151 17.2553L75.396 17.88ZM69.516 17.496L68.7926 18.1865L68.8087 18.2033L68.8255 18.2194L69.516 17.496ZM69.516 6.336L68.8089 5.62889L68.8089 5.62889L69.516 6.336ZM75.684 6.336L74.9606 7.02648L74.9767 7.0433L74.9935 7.05935L75.684 6.336ZM75.684 12.552L76.3911 13.2591L76.3911 13.2591L75.684 12.552ZM71.988 12.936L71.1559 13.4907L71.2109 13.5731L71.2809 13.6431L71.988 12.936ZM71.892 11.664V10.664H70.892V11.664H71.892ZM74.22 11.352L73.3683 10.8279L73.3683 10.8279L74.22 11.352ZM74.172 7.464L73.4321 8.13667L73.4481 8.15428L73.4649 8.17111L74.172 7.464ZM71.148 7.488L71.922 8.12124L71.9353 8.10489L71.948 8.088L71.148 7.488ZM71.124 16.296L70.2723 16.8201L70.2723 16.8201L71.124 16.296ZM74.516 16.608V17.352H76.516V16.608H74.516ZM74.516 17.352C74.516 17.4337 74.5091 17.4623 74.5109 17.4544C74.5122 17.4487 74.5179 17.4248 74.5336 17.3894C74.5493 17.3537 74.5781 17.2995 74.6278 17.2398L76.1642 18.5202C76.4869 18.1329 76.516 17.6367 76.516 17.352H74.516ZM74.6151 17.2553C74.7013 17.1476 74.7944 17.085 74.8578 17.051C74.9202 17.0176 74.9679 17.0043 74.9855 16.9999C75.0157 16.9923 75.0019 17 74.916 17V19C75.0861 19 75.2803 18.9877 75.4705 18.9401C75.6431 18.897 75.947 18.792 76.1769 18.5047L74.6151 17.2553ZM74.916 17H71.292V19H74.916V17ZM71.292 17C70.5477 17 70.2782 16.8411 70.2065 16.7726L68.8255 18.2194C69.4578 18.8229 70.3723 19 71.292 19V17ZM70.2394 16.8055C70.1709 16.7338 70.012 16.4643 70.012 15.72H68.012C68.012 16.6397 68.1891 17.5542 68.7926 18.1865L70.2394 16.8055ZM70.012 15.72V8.088H68.012V15.72H70.012ZM70.012 8.088C70.012 7.33701 70.1737 7.09251 70.2231 7.04311L68.8089 5.62889C68.1863 6.25148 68.012 7.17499 68.012 8.088H70.012ZM70.2231 7.04311C70.2952 6.97106 70.5571 6.808 71.292 6.808V4.808C70.3629 4.808 69.4408 4.99694 68.8089 5.62889L70.2231 7.04311ZM71.292 6.808H73.932V4.808H71.292V6.808ZM73.932 6.808C74.6733 6.808 74.9103 6.97375 74.9606 7.02648L76.4074 5.64552C75.7857 4.99425 74.8547 4.808 73.932 4.808V6.808ZM74.9935 7.05935C75.0463 7.10969 75.212 7.34666 75.212 8.088H77.212C77.212 7.16534 77.0257 6.23431 76.3745 5.61264L74.9935 7.05935ZM75.212 8.088V10.776H77.212V8.088H75.212ZM75.212 10.776C75.212 11.5109 75.0489 11.7728 74.9769 11.8449L76.3911 13.2591C77.0231 12.6272 77.212 11.7051 77.212 10.776H75.212ZM74.9769 11.8449C74.9275 11.8943 74.683 12.056 73.932 12.056V14.056C74.845 14.056 75.7685 13.8817 76.3911 13.2591L74.9769 11.8449ZM73.932 12.056H72.492V14.056H73.932V12.056ZM72.492 12.056C72.4084 12.056 72.3868 12.0487 72.4056 12.0532C72.4171 12.0559 72.4519 12.0651 72.5001 12.0883C72.5486 12.1118 72.621 12.1547 72.6951 12.2289L71.2809 13.6431C71.5034 13.8656 71.766 13.9568 71.9424 13.9988C72.1292 14.0433 72.3196 14.056 72.492 14.056V12.056ZM72.8201 12.3813C72.8599 12.441 72.8799 12.4905 72.889 12.5162C72.8983 12.5426 72.9005 12.5567 72.8999 12.5531C72.8993 12.5502 72.8972 12.537 72.8953 12.5111C72.8934 12.4856 72.892 12.4516 72.892 12.408H70.892C70.892 12.5727 70.9019 12.7447 70.9321 12.9109C70.9605 13.067 71.0182 13.284 71.1559 13.4907L72.8201 12.3813ZM72.892 12.408V11.664H70.892V12.408H72.892ZM71.892 12.664H73.284V10.664H71.892V12.664ZM73.284 12.664C73.5906 12.664 73.9104 12.6333 74.2062 12.5347C74.5075 12.4342 74.8477 12.2401 75.0717 11.8761L73.3683 10.8279C73.4139 10.7539 73.4678 10.7035 73.5111 10.6728C73.5518 10.6439 73.578 10.6359 73.5738 10.6373C73.5695 10.6387 73.5452 10.6461 73.4938 10.6527C73.4431 10.6592 73.3741 10.664 73.284 10.664V12.664ZM75.0717 11.8761C75.3544 11.4166 75.412 10.8217 75.412 10.296H73.412C73.412 10.5051 73.3982 10.6538 73.3801 10.7531C73.3609 10.8586 73.3444 10.8669 73.3683 10.8279L75.0717 11.8761ZM75.412 10.296V8.448H73.412V10.296H75.412ZM75.412 8.448C75.412 8.15373 75.389 7.86156 75.3235 7.59304C75.26 7.33267 75.1374 7.01516 74.8791 6.75689L73.4649 8.17111C73.4135 8.11971 73.3886 8.075 73.3797 8.05682C73.371 8.03917 73.3738 8.03938 73.3805 8.06696C73.395 8.12643 73.412 8.24627 73.412 8.448H75.412ZM74.9119 6.79133C74.659 6.51315 74.3388 6.37357 74.0651 6.30016C73.7876 6.22569 73.4872 6.2 73.188 6.2V8.2C73.3848 8.2 73.4964 8.21831 73.5469 8.23184C73.6012 8.24642 73.525 8.23885 73.4321 8.13667L74.9119 6.79133ZM73.188 6.2H72.156V8.2H73.188V6.2ZM72.156 6.2C71.8413 6.2 71.5237 6.22748 71.2333 6.31048C70.9476 6.39211 70.5987 6.55375 70.348 6.888L71.948 8.088C71.8413 8.23025 71.7324 8.24789 71.7827 8.23352C71.8019 8.22806 71.8412 8.21913 71.9064 8.21188C71.971 8.20471 72.0534 8.2 72.156 8.2V6.2ZM70.374 6.85476C70.1536 7.12424 70.0559 7.44147 70.0054 7.69388C69.9519 7.96126 69.932 8.2584 69.932 8.568H71.932C71.932 8.3336 71.9481 8.17874 71.9666 8.08612C71.9755 8.04141 71.9824 8.02487 71.981 8.02828C71.9799 8.03094 71.9646 8.06917 71.922 8.12124L70.374 6.85476ZM69.932 8.568V15.24H71.932V8.568H69.932ZM69.932 15.24C69.932 15.7657 69.9896 16.3606 70.2723 16.8201L71.9757 15.7719C71.9996 15.8109 71.9831 15.8026 71.9639 15.6971C71.9458 15.5978 71.932 15.4491 71.932 15.24H69.932ZM70.2723 16.8201C70.4964 17.1841 70.8365 17.3782 71.1378 17.4787C71.4336 17.5773 71.7534 17.608 72.06 17.608V15.608C71.9699 15.608 71.9009 15.6032 71.8502 15.5967C71.7988 15.5901 71.7745 15.5827 71.7702 15.5813C71.766 15.5799 71.7922 15.5879 71.8329 15.6168C71.8762 15.6475 71.9301 15.6979 71.9757 15.7719L70.2723 16.8201ZM72.06 17.608H75.516V15.608H72.06V17.608ZM80.7501 17.88L81.4572 18.5871L81.4572 18.5871L80.7501 17.88ZM78.9741 18H77.9741V19H78.9741V18ZM79.0941 5.952L78.387 5.24489L78.387 5.24489L79.0941 5.952ZM80.8941 5.808H81.8941V4.808H80.8941V5.808ZM83.9901 5.952L83.158 6.5067L83.2129 6.58909L83.283 6.6591L83.9901 5.952ZM84.1101 7.2V8.2H85.1101V7.2H84.1101ZM79.8941 7.2V17.352H81.8941V7.2H79.8941ZM79.8941 17.352C79.8941 17.4239 79.8866 17.4373 79.8933 17.4129C79.8999 17.3886 79.9327 17.2831 80.043 17.1729L81.4572 18.5871C81.8497 18.1945 81.8941 17.6634 81.8941 17.352H79.8941ZM80.043 17.1729C80.1171 17.0987 80.1895 17.0558 80.238 17.0323C80.2861 17.0091 80.3209 16.9999 80.3324 16.9972C80.3512 16.9927 80.3297 17 80.2461 17V19C80.4185 19 80.6089 18.9873 80.7957 18.9428C80.9721 18.9008 81.2346 18.8096 81.4572 18.5871L80.043 17.1729ZM80.2461 17H78.9741V19H80.2461V17ZM79.9741 18V6.456H77.9741V18H79.9741ZM79.9741 6.456C79.9741 6.37241 79.9813 6.35084 79.9769 6.36962C79.9741 6.38114 79.965 6.41595 79.9417 6.46406C79.9183 6.51257 79.8753 6.58495 79.8012 6.6591L78.387 5.24489C78.1644 5.46743 78.0733 5.72998 78.0313 5.90638C77.9868 6.09315 77.9741 6.28359 77.9741 6.456H79.9741ZM79.8012 6.65911C79.6909 6.76934 79.5855 6.80214 79.5612 6.80876C79.5367 6.81543 79.5502 6.808 79.6221 6.808V4.808C79.3107 4.808 78.7795 4.85233 78.387 5.24489L79.8012 6.65911ZM79.6221 6.808H80.8941V4.808H79.6221V6.808ZM79.8941 5.808V7.2H81.8941V5.808H79.8941ZM81.8281 7.55714C81.919 7.31949 82.0024 7.14494 82.0745 7.0222C82.1492 6.89489 82.1934 6.85482 82.1929 6.85526L80.8913 5.33674C80.4685 5.69913 80.1801 6.26713 79.96 6.84286L81.8281 7.55714ZM82.1929 6.85526C82.1731 6.8722 82.1765 6.86005 82.2369 6.8432C82.2998 6.82564 82.4074 6.808 82.5741 6.808V4.808C82.001 4.808 81.3753 4.92189 80.8913 5.33674L82.1929 6.85526ZM82.5741 6.808H83.5101V4.808H82.5741V6.808ZM83.5101 6.808C83.5867 6.808 83.5836 6.81648 83.5347 6.80183C83.4892 6.78816 83.3021 6.72281 83.158 6.5067L84.8221 5.3973C84.614 5.08519 84.315 4.94784 84.1094 4.88617C83.9006 4.82352 83.6894 4.808 83.5101 4.808V6.808ZM83.283 6.6591C83.2088 6.58495 83.1659 6.51257 83.1424 6.46406C83.1191 6.41595 83.11 6.38114 83.1073 6.36962C83.1028 6.35084 83.1101 6.37241 83.1101 6.456H85.1101C85.1101 6.28359 85.0973 6.09315 85.0529 5.90638C85.0109 5.72998 84.9197 5.46743 84.6972 5.24489L83.283 6.6591ZM83.1101 6.456V7.2H85.1101V6.456H83.1101ZM84.1101 6.2H80.8941V8.2H84.1101V6.2Z" fill="grey"/>
</svg>
